<svg xmlns="http://www.w3.org/2000/svg" fill="#353535" viewBox="0 0 800 240.12"><g id="Layer_2" data-name="Layer 2"><g id="Layer_1-2" data-name="Layer 1"><path d="M221.23,25.13A39.87,39.87,0,0,1,236.8,9.37a45.27,45.27,0,0,1,22.65-5.65Q275,3.72,286,11.91a39.3,39.3,0,0,1,14.77,22.34H277.44a18.85,18.85,0,0,0-7.38-8.31,20.72,20.72,0,0,0-10.86-2.86q-9.81,0-15.88,6.83t-6.09,18.24q0,11.42,6.09,18.24t15.88,6.83a20.72,20.72,0,0,0,10.86-2.86,18.85,18.85,0,0,0,7.38-8.31h23.33A39,39,0,0,1,286,84.32q-11,8.13-26.55,8.13A45.16,45.16,0,0,1,236.8,86.8a40,40,0,0,1-15.57-15.69,46.42,46.42,0,0,1-5.59-23A46.76,46.76,0,0,1,221.23,25.13Z"/><path d="M308.65,38.35a30.06,30.06,0,0,1,11-12.41,28.65,28.65,0,0,1,15.51-4.35,26.71,26.71,0,0,1,12.85,3,22,22,0,0,1,8.5,7.82v-9.8h21.22V91.83H356.49V82a23,23,0,0,1-8.63,7.81,26.58,26.58,0,0,1-12.84,3,28.12,28.12,0,0,1-15.39-4.4,30.5,30.5,0,0,1-11-12.54,41.72,41.72,0,0,1-4-18.8A41.32,41.32,0,0,1,308.65,38.35Zm43.43,6.32a14.9,14.9,0,0,0-21.46-.06q-4.41,4.53-4.41,12.47t4.41,12.6a14.77,14.77,0,0,0,21.46.06q4.41-4.59,4.41-12.53C356.49,51.91,355,47.74,352.08,44.67Z"/><path d="M423.62,25.13A24,24,0,0,1,436,21.84V44.3H430.2q-7.95,0-11.91,3.41t-4,12V91.83H393.1V22.59h21.21V34.13A28,28,0,0,1,423.62,25.13Z"/><path d="M476,24.57a26.79,26.79,0,0,1,12.78-3,28.62,28.62,0,0,1,15.51,4.35,30,30,0,0,1,11,12.41,41.46,41.46,0,0,1,4,18.73,41.85,41.85,0,0,1-4,18.8,30.45,30.45,0,0,1-11,12.54,28.32,28.32,0,0,1-15.51,4.4A26.78,26.78,0,0,1,476,89.91a22.51,22.51,0,0,1-8.56-7.76v9.68H446.21V0h21.22V32.39A21.82,21.82,0,0,1,476,24.57Zm17.31,20a14.56,14.56,0,0,0-10.86-4.53,14.29,14.29,0,0,0-10.73,4.59c-2.94,3.07-4.41,7.24-4.41,12.54s1.47,9.47,4.41,12.53a14.85,14.85,0,0,0,21.53-.06q4.47-4.65,4.47-12.6T493.3,44.61Z"/><path d="M543.68,88.48A31.79,31.79,0,0,1,530.9,76.07a37.09,37.09,0,0,1-4.65-18.86A36.81,36.81,0,0,1,531,38.41a32,32,0,0,1,12.91-12.47,40.94,40.94,0,0,1,36.73,0,32,32,0,0,1,12.91,12.47,36.81,36.81,0,0,1,4.71,18.8A36.37,36.37,0,0,1,593.44,76a32.3,32.3,0,0,1-13,12.47A38.87,38.87,0,0,1,562,92.82,38.18,38.18,0,0,1,543.68,88.48ZM572.35,70q4.27-4.47,4.28-12.78c0-5.54-1.39-9.81-4.16-12.78a14.11,14.11,0,0,0-20.54-.07q-4.09,4.41-4.09,12.85t4,12.78A13.06,13.06,0,0,0,562,74.46,13.83,13.83,0,0,0,572.35,70Z"/><path d="M671.13,29.72q7.26,7.89,7.26,21.66V91.83h-21.1V54.23q0-6.94-3.6-10.8a14.12,14.12,0,0,0-19.36,0q-3.6,3.85-3.6,10.8v37.6H609.51V22.59h21.22v9.18a22.41,22.41,0,0,1,8.69-7.26,27.59,27.59,0,0,1,12.29-2.67Q663.86,21.84,671.13,29.72Z"/><path d="M276,124.34a39,39,0,0,1,15.95,15.33,45.08,45.08,0,0,1,5.64,22.77,45.17,45.17,0,0,1-5.64,22.71,38.82,38.82,0,0,1-16,15.39q-10.36,5.46-24,5.46H219.24V118.88h32.64Q265.65,118.88,276,124.34Zm-6.7,56.72q6.71-6.59,6.7-18.62t-6.7-18.74q-6.71-6.69-18.74-6.7h-10v50.63h10Q262.56,187.63,269.25,181.06Z"/><path d="M369.39,176.46h-48c.33,4.31,1.72,7.59,4.16,9.87a12.67,12.67,0,0,0,9,3.41q8,0,11.05-6.7h22.58a31,31,0,0,1-6.26,12.29,31.41,31.41,0,0,1-11.36,8.56,36.44,36.44,0,0,1-15.26,3.1,37.18,37.18,0,0,1-18.12-4.34,31,31,0,0,1-12.41-12.41,38.31,38.31,0,0,1-4.47-18.86,38.74,38.74,0,0,1,4.41-18.87A30.56,30.56,0,0,1,317,140.1a37.43,37.43,0,0,1,18.24-4.34A37.06,37.06,0,0,1,353.14,140a30.26,30.26,0,0,1,12.22,12,36.49,36.49,0,0,1,4.41,18.24A53.8,53.8,0,0,1,369.39,176.46Zm-21.34-11.79a10.91,10.91,0,0,0-3.72-8.68,13.72,13.72,0,0,0-9.31-3.23,13.48,13.48,0,0,0-9,3.1,13.8,13.8,0,0,0-4.53,8.81Z"/><path d="M391.73,203.89a27.6,27.6,0,0,1-11.17-8.5,22.35,22.35,0,0,1-4.59-12.1h21a8.08,8.08,0,0,0,3.35,5.83,11.88,11.88,0,0,0,7.33,2.24,10.42,10.42,0,0,0,6.14-1.56,4.75,4.75,0,0,0,2.17-4,4.65,4.65,0,0,0-3.1-4.4,63,63,0,0,0-10.05-3.17,94.31,94.31,0,0,1-12.41-3.66,21.46,21.46,0,0,1-8.57-6.08q-3.6-4.16-3.6-11.23a19.1,19.1,0,0,1,3.29-10.86,22.18,22.18,0,0,1,9.68-7.76,37.11,37.11,0,0,1,15.2-2.85q13,0,20.54,6.45t8.63,17.13H415.93a8.49,8.49,0,0,0-3.16-5.71,11,11,0,0,0-7-2.11,9.67,9.67,0,0,0-5.7,1.43,4.54,4.54,0,0,0-2,3.91c0,2,1.06,3.47,3.16,4.46a50,50,0,0,0,9.87,3,109.07,109.07,0,0,1,12.53,3.91,21.52,21.52,0,0,1,8.5,6.21q3.66,4.28,3.79,11.47a18.23,18.23,0,0,1-3.41,10.86,22.59,22.59,0,0,1-9.81,7.51A37.48,37.48,0,0,1,407.86,207,39.77,39.77,0,0,1,391.73,203.89Z"/><path d="M450.49,126.27a10.65,10.65,0,0,1-3.54-8.13,10.78,10.78,0,0,1,3.54-8.25,12.88,12.88,0,0,1,9.12-3.29,12.72,12.72,0,0,1,9,3.29,10.77,10.77,0,0,1,3.53,8.25,10.64,10.64,0,0,1-3.53,8.13,12.72,12.72,0,0,1-9,3.29A12.88,12.88,0,0,1,450.49,126.27Zm19.67,10.48V206H448.94V136.75Z"/><path d="M524.7,138.74a21.92,21.92,0,0,1,8.5,7.82v-9.81h21.22v69.12a38.85,38.85,0,0,1-3.79,17.31,28.83,28.83,0,0,1-11.54,12.35q-7.76,4.59-19.29,4.59-15.39,0-24.95-7.26a27.39,27.39,0,0,1-10.92-19.66h21a10,10,0,0,0,4.71,6.26,17.18,17.18,0,0,0,9.18,2.3q6.59,0,10.49-3.79t3.91-12.1v-9.8a23.54,23.54,0,0,1-8.56,7.88,25.82,25.82,0,0,1-12.79,3,28.46,28.46,0,0,1-15.51-4.4,30.5,30.5,0,0,1-11-12.54,41.75,41.75,0,0,1-4-18.8,41.4,41.4,0,0,1,4-18.74,30.18,30.18,0,0,1,11-12.41,28.75,28.75,0,0,1,15.51-4.34A26.59,26.59,0,0,1,524.7,138.74Zm4.09,20.1a14.9,14.9,0,0,0-21.46-.06q-4.41,4.53-4.41,12.47t4.41,12.6a14.77,14.77,0,0,0,21.46.06q4.41-4.59,4.41-12.53T528.79,158.84Z"/><path d="M631.42,143.89q7.26,7.88,7.26,21.65V206h-21.1V168.4c0-4.64-1.2-8.23-3.6-10.8a14.09,14.09,0,0,0-19.36,0c-2.4,2.57-3.59,6.16-3.59,10.8V206H569.81V136.75H591v9.19a22.38,22.38,0,0,1,8.68-7.26A27.62,27.62,0,0,1,612,136Q624.15,136,631.42,143.89Z"/><path d="M719.59,176.46h-48c.33,4.31,1.72,7.59,4.16,9.87a12.68,12.68,0,0,0,9,3.41q7.93,0,11-6.7h22.59a31,31,0,0,1-6.27,12.29,31.41,31.41,0,0,1-11.36,8.56,36.41,36.41,0,0,1-15.26,3.1,37.23,37.23,0,0,1-18.12-4.34,31,31,0,0,1-12.41-12.41,38.42,38.42,0,0,1-4.46-18.86,38.74,38.74,0,0,1,4.4-18.87,30.56,30.56,0,0,1,12.35-12.41,37.43,37.43,0,0,1,18.24-4.34A37.06,37.06,0,0,1,703.33,140a30.2,30.2,0,0,1,12.22,12A36.49,36.49,0,0,1,720,170.26,53.73,53.73,0,0,1,719.59,176.46Zm-21.35-11.79a10.91,10.91,0,0,0-3.72-8.68,13.7,13.7,0,0,0-9.31-3.23,13.44,13.44,0,0,0-9,3.1,13.71,13.71,0,0,0-4.53,8.81Z"/><path d="M730.94,152.51a30.18,30.18,0,0,1,11-12.41,28.76,28.76,0,0,1,15.52-4.34,27.32,27.32,0,0,1,12.47,2.85,22.78,22.78,0,0,1,8.87,7.7V114.17H800V206H778.78v-9.93a21.61,21.61,0,0,1-8.5,7.94,26.58,26.58,0,0,1-12.84,3,28.47,28.47,0,0,1-15.52-4.4,30.5,30.5,0,0,1-11-12.54,41.75,41.75,0,0,1-4-18.8A41.4,41.4,0,0,1,730.94,152.51Zm43.43,6.33a14.9,14.9,0,0,0-21.46-.06q-4.41,4.53-4.41,12.47t4.41,12.6a14.77,14.77,0,0,0,21.46.06q4.41-4.59,4.41-12.53T774.37,158.84Z"/><path d="M0,78S52.89,26.09,87.46,28.74c20,1.53,14.61,28,25.67,48.43,8,14.85,32.45,25,44.31,27.76,28.19,6.58-109.08,74.41-109.08,74.41S53.49,94.14,0,78Z"/></g></g></svg>