<svg width="760" height="500" viewBox="0 0 760 500" fill="none" xmlns="http://www.w3.org/2000/svg">
<g clip-path="url(#clip0)">
<rect width="760" height="500" fill="white"/>
<path fill-rule="evenodd" clip-rule="evenodd" d="M177.272 -26.9268C187.878 15.889 186.428 60.1561 164.02 98.1506C138.984 140.603 101.204 174.683 52.8241 184.087C-4.85106 195.298 -74.4122 197.24 -111.555 151.715C-147.818 107.268 -126.023 42.3226 -106.985 -11.7891C-92.5401 -52.8455 -59.3405 -79.7574 -22.1567 -102.377C17.5911 -126.556 61.3476 -157.123 104.862 -140.66C149.086 -123.928 165.902 -72.8231 177.272 -26.9268Z" fill="#FFD15C"/>
<path fill-rule="evenodd" clip-rule="evenodd" d="M607.704 554.363C582.827 519.921 568.201 479.847 574.556 437.839C581.658 390.903 603.157 346.863 643.002 321.06C690.503 290.298 751.957 263.543 801.518 290.861C849.906 317.531 853.792 383.4 856.244 438.596C858.105 480.476 838.12 516.463 813.032 550.048C786.214 585.949 758.111 628.998 713.309 629.94C667.777 630.896 634.37 591.282 607.704 554.363Z" fill="#00A3E4"/>
</g>
<defs>
<clipPath id="clip0">
<rect width="759.852" height="500" fill="white"/>
</clipPath>
</defs>
</svg>
