<svg width="521" height="770" viewBox="0 0 521 770" fill="none" xmlns="http://www.w3.org/2000/svg">
<g clip-path="url(#clip0)">
<path fill-rule="evenodd" clip-rule="evenodd" d="M-71.7514 727.271C-29.5226 670.797 26.7095 627.768 96.4021 617.018C174.271 605.006 254.687 617.237 315.308 667.566C387.576 727.566 460.413 811.654 441.702 903.701C423.434 993.567 321.02 1032.37 234.8 1063.6C169.382 1087.31 102.473 1073.48 36.8388 1050.39C-33.3206 1025.7 -115.44 1002.51 -139.134 932.012C-163.215 860.359 -117.019 787.809 -71.7514 727.271Z" fill="#FFD15C"/>
<path fill-rule="evenodd" clip-rule="evenodd" d="M-308.193 -39.354C-286.114 -106.325 -246.483 -165.002 -183.826 -197.355C-113.819 -233.504 -33.687 -247.48 39.7906 -219.039C127.387 -185.133 223.182 -128.57 234.711 -35.3514C245.967 55.6595 161.207 125.01 89.395 182.043C34.9091 225.317 -32.9229 233.488 -102.495 232.46C-176.864 231.361 -262.093 235.494 -306.975 176.186C-352.59 115.91 -331.861 32.436 -308.193 -39.354Z" fill="#FFD15C"/>
<path fill-rule="evenodd" clip-rule="evenodd" d="M429.429 282.222C398.597 238.726 382.977 186.304 397.279 128.61C413.259 64.1486 449.237 1.7882 508.859 -38.1949C579.938 -85.8604 670.246 -129.866 736.894 -99.1379C801.964 -69.1378 799.131 19.5738 795.619 94.0146C792.955 150.495 760.137 201.759 720.403 250.414C677.93 302.424 632.736 364.278 569.247 371.219C504.722 378.272 462.479 328.849 429.429 282.222Z" fill="#00A3E4"/>
</g>
<defs>
<clipPath id="clip0">
<rect width="521" height="770" fill="white"/>
</clipPath>
</defs>
</svg>
