<svg width="50" height="50" viewBox="0 0 50 50" fill="none" xmlns="http://www.w3.org/2000/svg">
<path fill-rule="evenodd" clip-rule="evenodd" d="M24.9402 0C11.1679 0 0 11.476 0 25.6329C0 36.9583 7.14612 46.5667 17.0556 49.9559C18.302 50.1931 18.7596 49.4 18.7596 48.7229C18.7596 48.1115 18.7365 46.0924 18.7258 43.9507C11.7874 45.501 10.3233 40.926 10.3233 40.926C9.18882 37.9635 7.55416 37.1757 7.55416 37.1757C5.29135 35.5847 7.72473 35.6174 7.72473 35.6174C10.2292 35.7976 11.5478 38.2594 11.5478 38.2594C13.7723 42.1774 17.3823 41.0444 18.8055 40.3896C19.0293 38.733 19.6756 37.6017 20.3889 36.9622C14.8494 36.3139 9.02608 34.116 9.02608 24.2941C9.02608 21.4956 10.0003 19.209 11.5957 17.4139C11.3368 16.7679 10.4831 14.1612 11.8374 10.6305C11.8374 10.6305 13.9317 9.94153 18.6977 13.2579C20.6871 12.69 22.8206 12.4051 24.9402 12.3954C27.0597 12.4051 29.1949 12.69 31.188 13.2579C35.9483 9.94153 38.0395 10.6305 38.0395 10.6305C39.3973 14.1612 38.5432 16.7679 38.2841 17.4139C39.8831 19.209 40.851 21.4956 40.851 24.2941C40.851 34.1393 35.0166 36.3069 29.4629 36.9417C30.3575 37.7372 31.1545 39.2972 31.1545 41.6885C31.1545 45.1184 31.1256 47.8785 31.1256 48.7229C31.1256 49.4049 31.5746 50.2042 32.8387 49.9524C42.7429 46.5594 49.8797 36.9545 49.8797 25.6329C49.8797 11.476 38.7135 0 24.9402 0Z" fill="#474752"/>
<path d="M9.44602 36.8031C9.39109 36.9309 9.19616 36.9687 9.01856 36.8812C8.83768 36.7979 8.73606 36.6243 8.79471 36.4965C8.84839 36.3656 9.04376 36.3292 9.22423 36.4163C9.40555 36.5003 9.50879 36.6757 9.44602 36.8031Z" fill="#474752"/>
<path d="M10.4562 37.9611C10.3373 38.0747 10.1048 38.0219 9.947 37.8427C9.7839 37.6642 9.75332 37.425 9.87393 37.3101C9.99656 37.1972 10.2221 37.2504 10.3856 37.4285C10.5488 37.6094 10.5806 37.8465 10.4562 37.9611Z" fill="#474752"/>
<path d="M11.4396 39.4375C11.2868 39.5465 11.037 39.4444 10.8825 39.2163C10.7297 38.9885 10.7297 38.7149 10.8858 38.6055C11.0407 38.4962 11.2868 38.5948 11.4434 38.8208C11.5958 39.0524 11.5958 39.326 11.4396 39.4375Z" fill="#474752"/>
<path d="M12.7868 40.8639C12.6501 41.0187 12.359 40.9771 12.1459 40.7656C11.9278 40.559 11.8671 40.2656 12.0042 40.1108C12.1425 39.9555 12.4354 39.9993 12.6501 40.2087C12.8665 40.4153 12.9326 40.7104 12.7868 40.8639Z" fill="#474752"/>
<path d="M14.6453 41.692C14.585 41.8927 14.3046 41.984 14.0221 41.8986C13.74 41.8108 13.5554 41.5757 13.6124 41.3726C13.671 41.1705 13.9527 41.0757 14.2372 41.1667C14.5189 41.2542 14.7039 41.4879 14.6453 41.692Z" fill="#474752"/>
<path d="M16.6865 41.8455C16.6935 42.0569 16.4539 42.2323 16.1574 42.2361C15.8592 42.2427 15.618 42.0719 15.6147 41.8639C15.6147 41.6503 15.8489 41.4767 16.1471 41.4715C16.4436 41.4656 16.6865 41.6354 16.6865 41.8455Z" fill="#474752"/>
<path d="M18.5858 41.5132C18.6213 41.7194 18.4152 41.9313 18.1208 41.9878C17.8312 42.042 17.5632 41.9149 17.5265 41.7101C17.4905 41.4986 17.7003 41.2868 17.9894 41.2323C18.2843 41.1795 18.5482 41.3035 18.5858 41.5132Z" fill="#474752"/>
</svg>
