<svg width="50" height="50" viewBox="0 0 50 50" fill="none" xmlns="http://www.w3.org/2000/svg">
<path d="M25.0219 12.2615C24.5822 12.2615 24.1473 12.284 23.7189 12.3278C23.2904 12.3717 22.8678 12.4368 22.4525 12.5221C22.0371 12.6075 21.6291 12.7132 21.2293 12.838L20.0558 13.2689L18.9386 13.8084L17.8843 14.4499L16.8992 15.1867L15.9901 16.0125L15.1636 16.9207L14.426 17.9047L13.7836 18.958L13.2439 20.074C13.0816 20.4557 12.9373 20.847 12.8123 21.2465C12.6874 21.646 12.5817 22.0538 12.4961 22.4687C12.4106 22.8836 12.3456 23.3056 12.3015 23.7338C12.2575 24.162 12.2354 24.5964 12.2354 25.0356C12.2354 25.4748 12.2578 25.9092 12.3015 26.3374C12.345 26.7622 12.4099 27.1844 12.4961 27.6026C12.5817 28.0191 12.6874 28.4253 12.8123 28.8248C12.9373 29.2243 13.0814 29.6155 13.2439 29.9973L13.7836 31.1133L14.426 32.1665L15.1636 33.1507L15.9901 34.0589L16.8992 34.8847L17.8843 35.6215L18.9386 36.2628L20.0558 36.8024L21.2293 37.2333L22.4525 37.5493C22.871 37.6354 23.2937 37.7003 23.7189 37.7438C24.1518 37.7878 24.5867 37.8101 25.0219 37.8097C25.4616 37.8097 25.8965 37.7875 26.3248 37.7438C26.75 37.7003 27.1726 37.6354 27.5912 37.5493L28.8145 37.2333L29.988 36.8024L31.1051 36.2628L32.1596 35.6215L33.1447 34.8847L34.0539 34.0589L34.8805 33.1507L35.618 32.1665L36.2604 31.1133L36.8003 29.9973L37.2316 28.8248C37.3566 28.4253 37.4625 28.0175 37.5479 27.6026L37.7423 26.3372C37.7864 25.9091 37.8087 25.4747 37.8087 25.0354C37.8087 24.5962 37.7864 24.1618 37.7423 23.7336C37.6989 23.3089 37.634 22.8867 37.5479 22.4685C37.4625 22.0521 37.3566 21.646 37.2316 21.2464L36.8003 20.0739L36.2604 18.9578L35.618 17.9045L34.8805 16.9205L34.0539 16.0123L33.1447 15.1866L32.1596 14.4498L31.1051 13.8082L29.988 13.2687L28.8145 12.8378L27.5912 12.522L26.3248 12.3277C25.8919 12.2835 25.4571 12.2613 25.0219 12.2614V12.2615ZM25.0219 16.6707C25.3126 16.6707 25.5995 16.6851 25.8821 16.7136L26.715 16.8397L27.5196 17.0447L28.2901 17.3245L29.0226 17.6753L29.7114 18.0926L30.3553 18.5726L30.9489 19.1111L31.4879 19.7041L31.9685 20.3474L32.3862 21.0372L32.737 21.7692C32.8424 22.0197 32.9359 22.2765 33.0173 22.539C33.0987 22.8016 33.1671 23.0699 33.2224 23.3431C33.2776 23.6164 33.3185 23.8945 33.3484 24.1769L33.3914 25.0364C33.3914 25.3268 33.377 25.6135 33.3484 25.8961C33.3199 26.1786 33.278 26.4567 33.2224 26.7298C33.1668 27.0029 33.0982 27.2712 33.0173 27.5339L32.737 28.3038L32.3862 29.0358L31.9685 29.7253L31.4879 30.3688L30.9489 30.9618L30.3553 31.5003L29.7114 31.9804L29.0226 32.3976L28.2901 32.7484L27.5196 33.0283L26.715 33.2333L25.8821 33.3592C25.5962 33.3878 25.3091 33.4022 25.0218 33.4022C24.7344 33.4022 24.4472 33.3878 24.1613 33.3592L23.3283 33.2333C23.0549 33.1779 22.7864 33.1093 22.5236 33.0283L21.7531 32.7484L21.0206 32.3976L20.3318 31.9804L19.6879 31.5003L19.0943 30.9618L18.5553 30.3688L18.0747 29.7253L17.657 29.0358L17.3062 28.3038L17.0259 27.5339L16.8208 26.7298L16.6948 25.8961C16.6661 25.6104 16.6518 25.3235 16.6518 25.0364C16.6518 24.7493 16.6661 24.4625 16.6948 24.1769C16.7231 23.8945 16.7652 23.6162 16.8208 23.3431C16.8759 23.0719 16.9443 22.8036 17.026 22.5392L17.3064 21.7693L17.6572 21.0373L18.0749 20.3476L18.5554 19.7043L19.0944 19.1113L19.6881 18.5728L20.332 18.0927L21.0208 17.6755L21.7533 17.3247C22.0054 17.2188 22.2626 17.1254 22.5239 17.0448L23.3287 16.8398C23.6021 16.7844 23.8805 16.7421 24.1616 16.7137C24.4475 16.6851 24.7347 16.6708 25.0221 16.6708L25.0219 16.6707Z" fill="#474752"/>
<path d="M38.327 8.62767C38.2256 8.62767 38.1242 8.63281 38.0232 8.64305C37.9222 8.65326 37.8218 8.66854 37.7222 8.68885C37.6228 8.70916 37.5242 8.73444 37.4274 8.76461C37.3301 8.79482 37.235 8.82989 37.1413 8.86968C37.0479 8.90955 36.9565 8.95409 36.8673 9.00312C36.7781 9.05208 36.6916 9.10548 36.6079 9.16316C36.5239 9.22086 36.443 9.28277 36.3656 9.34864C36.2878 9.41444 36.2135 9.48409 36.1426 9.55736C36.0722 9.63066 36.0051 9.7075 35.9419 9.78753C35.8788 9.8676 35.8197 9.95076 35.7649 10.0368C35.71 10.1227 35.6597 10.2114 35.6135 10.3024C35.5676 10.3934 35.526 10.4868 35.4892 10.582C35.4524 10.6773 35.4204 10.7743 35.393 10.8727C35.3659 10.9712 35.3437 11.071 35.3267 11.1717C35.3093 11.2723 35.2972 11.3738 35.2899 11.4757C35.2847 11.5478 35.2822 11.6202 35.2822 11.6926C35.2822 11.7948 35.2871 11.8969 35.2975 11.9987C35.3076 12.1003 35.3229 12.2014 35.343 12.3016C35.3631 12.4017 35.3881 12.5008 35.418 12.5984C35.4482 12.696 35.4829 12.7921 35.5225 12.8862C35.5621 12.9804 35.6062 13.0725 35.6551 13.1622C35.7038 13.2519 35.7569 13.3391 35.8142 13.4235C35.8715 13.5078 35.9329 13.5891 35.9982 13.6673C36.0638 13.7454 36.1329 13.8203 36.2058 13.8915C36.2788 13.9627 36.3548 14.0302 36.4347 14.0937C36.5142 14.1572 36.5968 14.2167 36.6822 14.2719C36.7676 14.3272 36.8558 14.3781 36.9461 14.4244C37.0367 14.4708 37.1294 14.5126 37.2239 14.5497C37.3187 14.5867 37.4149 14.619 37.5128 14.6463C37.6107 14.6736 37.7097 14.6959 37.8097 14.7132C37.9097 14.7306 38.0107 14.743 38.1117 14.7502C38.1836 14.7554 38.2555 14.7579 38.3274 14.7579C38.4288 14.7579 38.5305 14.7529 38.6315 14.7427C38.7322 14.7325 38.8329 14.7172 38.9322 14.6969C39.0319 14.6766 39.1301 14.6513 39.2274 14.6211C39.3242 14.5909 39.4197 14.5559 39.5131 14.5161C39.6065 14.4762 39.6982 14.4318 39.7871 14.3828C39.8763 14.3338 39.9628 14.2803 40.0468 14.2226C40.1305 14.1649 40.2114 14.1031 40.2892 14.0373C40.3666 13.9714 40.4409 13.9017 40.5117 13.8284C40.5826 13.7551 40.6496 13.6783 40.7124 13.5982C40.7756 13.5182 40.8347 13.435 40.8895 13.349C40.9444 13.263 40.9951 13.1743 41.0409 13.0833C41.0871 12.9921 41.1287 12.8988 41.1656 12.8036C41.2024 12.7083 41.2343 12.6113 41.2614 12.5128C41.2885 12.4144 41.3107 12.3147 41.3281 12.214C41.3454 12.1133 41.3576 12.0118 41.3645 11.9099C41.3697 11.8377 41.3725 11.7654 41.3725 11.6931C41.3725 11.5909 41.3673 11.4887 41.3572 11.3871C41.3472 11.2854 41.3319 11.1843 41.3117 11.0842C41.2916 10.9841 41.2662 10.885 41.2364 10.7874C41.2062 10.6898 41.1715 10.5937 41.1319 10.4995C41.0923 10.4054 41.0482 10.3133 40.9996 10.2235C40.951 10.1339 40.8978 10.0467 40.8406 9.96229C40.7829 9.87791 40.7215 9.79652 40.6562 9.71833C40.5906 9.64017 40.5215 9.56531 40.4489 9.49409C40.376 9.42291 40.2996 9.35545 40.2201 9.29194C40.1406 9.22843 40.0579 9.16899 39.9725 9.11382C39.8871 9.05857 39.7989 9.00767 39.7083 8.96132C39.6176 8.91493 39.5249 8.87312 39.4305 8.83607C39.336 8.79902 39.2395 8.7668 39.1416 8.73948C39.044 8.71211 38.9447 8.68972 38.8447 8.67236C38.7447 8.65503 38.644 8.64271 38.5426 8.63552C38.4708 8.63038 38.3989 8.62784 38.327 8.62784V8.62767Z" fill="#474752"/>
<path d="M22.5973 0.0452046C21.2066 0.0429619 19.9656 0.0487279 18.8507 0.0644255L15.8617 0.144516C14.9762 0.182959 14.1939 0.233092 13.4917 0.297965C13.1406 0.330321 12.8093 0.366522 12.4954 0.406407C12.1966 0.444063 11.8987 0.487911 11.6017 0.537917C11.319 0.585973 11.0507 0.637869 10.7934 0.694251C10.5362 0.750636 10.2905 0.811504 10.0534 0.876858C9.82166 0.940765 9.5917 1.01106 9.36385 1.08766C9.14055 1.16294 8.9227 1.24271 8.70757 1.32793C8.27732 1.49836 7.85767 1.68961 7.42548 1.90393C7.09295 2.06892 6.78572 2.23599 6.49388 2.41283C6.20204 2.58967 5.92555 2.77644 5.65486 2.97987C5.37607 3.19039 5.10736 3.41393 4.84965 3.64976C4.5802 3.89514 4.30503 4.16504 4.01909 4.46667C3.65982 4.84358 3.34762 5.195 3.07051 5.53986C2.93195 5.71222 2.8022 5.88267 2.67999 6.05406C2.55912 6.22295 2.44357 6.39563 2.33352 6.57174C2.2246 6.74635 2.12144 6.92417 2.02277 7.10708C1.92256 7.29316 1.82785 7.48215 1.73877 7.67379C1.55648 8.06528 1.38637 8.48688 1.21658 8.9575C1.09062 9.30538 0.977821 9.65795 0.878436 10.0143C0.777044 10.3786 0.686863 10.7597 0.60645 11.1718C0.52604 11.584 0.45588 12.0272 0.39421 12.5173C0.327756 13.0546 0.274667 13.5935 0.234992 14.1334C0.190142 14.727 0.15298 15.3802 0.122546 16.1073L0.0504648 18.5248L0.0117009 21.4716L0.000488281 25.0335L0.0333253 30.2133L0.135841 34.1377L0.21481 35.6705L0.313481 36.941C0.345111 37.2833 0.384686 37.6247 0.432176 37.9653C0.475422 38.2677 0.521877 38.5323 0.571853 38.7615C0.673259 39.2271 0.793169 39.6885 0.931297 40.1448C1.06355 40.5816 1.2148 41.0122 1.38461 41.4358C1.55152 41.8507 1.73412 42.2507 1.93275 42.6358C2.13137 43.0208 2.34601 43.391 2.57667 43.7465C2.80733 44.1017 3.05401 44.4427 3.31735 44.7691C3.58038 45.0955 3.86017 45.4076 4.15559 45.7052C4.45142 46.0031 4.76347 46.2865 5.09232 46.5559C5.42503 46.8285 5.77093 47.0847 6.12868 47.3233C6.46072 47.5451 6.78927 47.7486 7.1202 47.9351C7.45111 48.1219 7.78493 48.291 8.12805 48.4451C8.47114 48.599 8.82291 48.7375 9.19038 48.8622C9.55781 48.9868 9.94066 49.0976 10.3453 49.1958C10.7499 49.2944 11.1782 49.3806 11.6315 49.4559C12.0848 49.5312 12.5694 49.5958 13.0871 49.6514C13.6048 49.7069 14.1571 49.7528 14.7506 49.7913C15.344 49.8299 15.9783 49.8604 16.6599 49.8851C17.7128 49.9233 19.3066 49.9455 21.1445 49.9542L27.0944 49.942L32.7286 49.8632L34.8709 49.8028L36.2664 49.7312C36.566 49.7066 36.8591 49.6778 37.1421 49.6441C37.4251 49.6104 37.7039 49.5719 37.9758 49.5278C38.2473 49.484 38.5129 49.4351 38.7737 49.3806C39.0317 49.3267 39.2883 49.2667 39.5431 49.2007C39.7956 49.1365 40.0445 49.0635 40.291 48.9861C40.5372 48.909 40.7813 48.8253 41.0237 48.7354C41.2674 48.6451 41.5087 48.549 41.748 48.4472C41.9886 48.3444 42.2289 48.2351 42.4702 48.1187C42.8407 47.9403 43.139 47.7913 43.4008 47.6462C43.6473 47.5111 43.8844 47.3601 44.1112 47.1937C44.3348 47.0292 44.557 46.8417 44.8133 46.6056C45.0695 46.3694 45.3601 46.0851 45.7195 45.7253C46.0358 45.4094 46.3021 45.1347 46.532 44.8851C46.7619 44.6354 46.9556 44.4108 47.1254 44.1941C47.2872 43.9885 47.4379 43.7747 47.5772 43.5531C47.7129 43.3368 47.8379 43.1122 47.965 42.8632C48.1567 42.4885 48.3272 42.1413 48.4796 41.8062C48.6278 41.4837 48.7633 41.1549 48.8855 40.8215C49.006 40.4906 49.1105 40.1542 49.1983 39.8132C49.2886 39.4625 49.3664 39.092 49.4337 38.6858C49.5008 38.2795 49.5577 37.8375 49.607 37.3438C49.6563 36.8503 49.6983 36.3045 49.7351 35.6917L49.8331 33.6337L49.9167 31.0745L49.9768 28.2233L49.9997 25.2421L49.9462 19.3867L49.8747 16.764L49.7772 14.5122L49.6553 12.7566C49.6112 12.2681 49.5633 11.8833 49.5129 11.6232C49.4567 11.3358 49.3942 11.0497 49.3251 10.7651C49.2577 10.4882 49.1837 10.213 49.1032 9.93972C49.0247 9.67344 48.9393 9.4092 48.8473 9.14729C48.7563 8.88861 48.6598 8.63535 48.5587 8.38757C48.4581 8.13976 48.3487 7.89774 48.2351 7.66083C48.1212 7.42392 48.0022 7.19278 47.8772 6.96691C47.7518 6.74108 47.6216 6.52083 47.4851 6.30601C47.349 6.09122 47.207 5.88184 47.0591 5.67809C46.9122 5.475 46.7587 5.27656 46.5994 5.08302C46.4407 4.89059 46.2761 4.70319 46.1056 4.52111C45.9355 4.33931 45.7594 4.16292 45.5782 3.99222C45.3966 3.82146 45.2098 3.65615 45.0171 3.49629C44.8233 3.3359 44.6251 3.18157 44.4216 3.03353C44.2164 2.88397 44.0067 2.74071 43.7924 2.60393C43.5754 2.4652 43.3546 2.33294 43.1296 2.20732C42.9011 2.07959 42.6685 1.95844 42.4331 1.84403C42.0417 1.65389 41.6799 1.48523 41.3251 1.33562C40.9758 1.18714 40.6199 1.05527 40.2584 0.940452C39.8949 0.825921 39.5164 0.727733 39.1001 0.642997C38.6834 0.558261 38.2292 0.487622 37.7153 0.427553C37.2015 0.367487 36.6275 0.318953 35.9709 0.278588C35.3146 0.238222 34.5762 0.206504 33.7332 0.180875L30.8682 0.116804L27.2422 0.0740359L22.5989 0.0455224L22.5973 0.0452046ZM25.0088 4.45049L31.7049 4.48861L34.2309 4.53729C34.9265 4.55684 35.4574 4.57976 35.7685 4.60618C36.174 4.64031 36.5598 4.68306 36.9292 4.73434C37.2834 4.78326 37.6362 4.8441 37.9862 4.91677C38.3226 4.98726 38.6435 5.06733 38.9508 5.15767C39.2577 5.24802 39.5511 5.34927 39.8324 5.46122C40.114 5.5732 40.3831 5.69636 40.6421 5.83125C40.899 5.96511 41.1487 6.1124 41.39 6.27254C41.6303 6.43191 41.8619 6.60365 42.0869 6.78865C42.3115 6.97365 42.5296 7.17195 42.7424 7.38403C42.9674 7.60781 43.1747 7.83573 43.3657 8.07087C43.556 8.30458 43.7324 8.54951 43.8931 8.80434C44.056 9.06281 44.2025 9.33111 44.3324 9.60764C44.465 9.88958 44.5841 10.1875 44.691 10.5042C44.7983 10.8209 44.8935 11.1574 44.9778 11.517C45.0664 11.8983 45.1403 12.2827 45.2001 12.6695C45.264 13.0796 45.3188 13.5169 45.3653 13.9851C45.4115 14.4533 45.4501 14.9526 45.4817 15.4868C45.507 15.9152 45.5292 16.4807 45.548 17.1485L45.5949 19.4255L45.6306 25.0029L45.59 30.5751L45.541 32.8455L45.4733 34.4968C45.4268 35.2701 45.3775 35.9201 45.3185 36.4858C45.289 36.7688 45.2567 37.0306 45.2212 37.276C45.1879 37.508 45.1483 37.7389 45.1028 37.9687C45.0612 38.1785 45.0129 38.3868 44.9577 38.5937C44.9053 38.7906 44.8459 38.9861 44.7803 39.1795C44.714 39.3736 44.6421 39.5656 44.5643 39.7552C44.482 39.9559 44.3952 40.1542 44.3039 40.3507C44.2226 40.526 44.1372 40.6969 44.0469 40.8628C43.9577 41.0274 43.8626 41.1885 43.7626 41.3465C43.6633 41.5031 43.5591 41.6552 43.4501 41.8024C43.3417 41.949 43.2282 42.0917 43.1094 42.2302C42.9914 42.3684 42.8681 42.5017 42.74 42.6309C42.6119 42.7597 42.4789 42.884 42.341 43.0042C42.2035 43.1243 42.0605 43.2399 41.9126 43.351C41.765 43.4622 41.6119 43.5688 41.4539 43.6708C41.2956 43.7733 41.1327 43.8712 40.9643 43.9649C40.7959 44.0583 40.6223 44.1476 40.4438 44.2326C40.2619 44.3191 40.0778 44.4 39.891 44.4753C39.6983 44.5531 39.5035 44.6253 39.3067 44.6924C38.906 44.8288 38.4837 44.9486 38.039 45.0517C37.5758 45.159 37.1081 45.2465 36.6372 45.3142C36.456 45.3406 36.04 45.3656 35.4442 45.3885L33.1735 45.4517L26.7359 45.5354L19.9977 45.5458L17.3516 45.5177L15.6333 45.4642L14.3663 45.375C13.9729 45.342 13.607 45.3052 13.2642 45.2632C12.9215 45.2215 12.6022 45.175 12.3019 45.1222C12.0173 45.0733 11.7344 45.0142 11.4537 44.9462C11.1978 44.884 10.9445 44.8115 10.6945 44.7288C10.4534 44.6486 10.2229 44.5604 9.99864 44.4635C9.77437 44.3667 9.55652 44.2604 9.34076 44.1444C9.125 44.0285 8.91149 43.9028 8.69555 43.7653C8.53267 43.6618 8.3752 43.5569 8.22368 43.4462C8.07215 43.3351 7.92572 43.2243 7.78479 43.1083C7.64381 42.9924 7.50847 42.8729 7.37791 42.75C7.24822 42.6274 7.12302 42.5003 7.00246 42.3691C6.88232 42.2378 6.76746 42.1031 6.65725 41.9635C6.54663 41.8233 6.44121 41.6788 6.34125 41.5309C6.23975 41.3806 6.14375 41.2267 6.0534 41.0698C5.96208 40.9111 5.87527 40.7472 5.79277 40.5778C5.70888 40.4056 5.63062 40.2306 5.55812 40.0531C5.48444 39.8722 5.41458 39.6858 5.34892 39.4934C5.21756 39.108 5.10225 38.6979 5.00197 38.2608C4.9017 37.8236 4.81614 37.359 4.74375 36.8639C4.67135 36.3691 4.61305 35.8441 4.56659 35.2865C4.53232 34.8757 4.5051 34.2357 4.48427 33.4284L4.44069 30.5572L4.4567 23.2377L4.58277 16.2436L4.67888 13.7794L4.73333 12.9649C4.75225 12.7474 4.7718 12.5862 4.7918 12.4894C4.85781 12.1712 4.92427 11.875 4.99298 11.5977C5.05718 11.3361 5.12861 11.0764 5.20715 10.8188C5.2818 10.5756 5.36045 10.3478 5.44454 10.1321C5.52562 9.92306 5.616 9.71778 5.71541 9.51684C5.81246 9.32142 5.91677 9.13431 6.03 8.95219C6.14326 8.77007 6.26548 8.5934 6.39875 8.41767C6.53201 8.24195 6.67552 8.06847 6.8317 7.8926C6.98788 7.71674 7.15656 7.5391 7.33947 7.35601C7.55267 7.1416 7.77465 6.93611 8.00486 6.74011C8.22225 6.55517 8.44892 6.38146 8.68402 6.21969C8.91517 6.05948 9.15225 5.91695 9.39909 5.7859C9.64593 5.6549 9.90253 5.53649 10.1724 5.43C10.4423 5.32347 10.7259 5.22816 11.0262 5.14167C11.3417 5.05316 11.6608 4.97764 11.9825 4.91531C12.3208 4.84903 12.6801 4.79118 13.0637 4.74073C13.4473 4.69028 13.8554 4.6467 14.2918 4.60889C14.5961 4.58264 15.1206 4.55924 15.8111 4.53955L18.3243 4.4899L25.01 4.44903L25.0088 4.45049Z" fill="#474752"/>
</svg>
