<svg width="50" height="50" viewBox="0 0 50 50" fill="none" xmlns="http://www.w3.org/2000/svg">
<path d="M42.5482 42.255H35.1489V30.7481C35.1489 28.0042 35.0996 24.4719 31.3007 24.4719C27.447 24.4719 26.8574 27.4615 26.8574 30.5483V42.2543H19.4582V18.5913H26.5614V21.8251H26.6608C27.3717 20.6181 28.3989 19.6252 29.6331 18.9521C30.8672 18.279 32.2622 17.9509 33.6692 18.0028C41.1685 18.0028 42.5514 22.9013 42.5514 29.2739L42.5482 42.255ZM11.1095 15.3568C10.2603 15.357 9.43006 15.107 8.72387 14.6386C8.01765 14.1702 7.46723 13.5044 7.14209 12.7253C6.81699 11.9462 6.73178 11.0888 6.8973 10.2617C7.06283 9.43453 7.47164 8.67467 8.07206 8.07825C8.67244 7.48179 9.43744 7.07557 10.2703 6.91088C11.1032 6.7462 11.9666 6.8305 12.7512 7.15307C13.5359 7.47568 14.2066 8.02207 14.6785 8.72321C15.1504 9.42432 15.4024 10.2487 15.4026 11.092C15.4027 11.652 15.2917 12.2065 15.076 12.7238C14.8603 13.2412 14.5442 13.7113 14.1455 14.1073C13.7469 14.5034 13.2736 14.8176 12.7526 15.0319C12.2317 15.2463 11.6734 15.3567 11.1095 15.3568ZM14.8091 42.255H7.40227V18.5913H14.8091V42.255ZM46.2371 0.00532788H3.68419C2.71837 -0.00549579 1.78768 0.364905 1.09672 1.03514C0.405762 1.70537 0.011055 2.6206 -0.000732422 3.5797V46.0123C0.0106516 46.972 0.405126 47.8876 1.09606 48.5588C1.787 49.2296 2.7179 49.6008 3.68419 49.5904H46.2371C47.2052 49.6026 48.1388 49.2324 48.8325 48.5616C49.5259 47.8907 49.9231 46.9737 49.9367 46.0123V3.57665C49.9227 2.61563 49.5252 1.69936 48.8318 1.02915C48.1381 0.358933 47.2049 -0.0104095 46.2371 0.00226507" fill="#474752"/>
</svg>
