<svg width="54" height="44" viewBox="0 0 54 44" fill="none" xmlns="http://www.w3.org/2000/svg">
<path d="M47.7217 11.0279C47.754 11.4945 47.754 11.961 47.754 12.4319C47.754 26.7796 36.8314 43.3266 16.859 43.3266V43.3181C10.9592 43.3266 5.18182 41.6367 0.215088 38.4503C1.07298 38.5536 1.93517 38.605 2.79951 38.6072C7.68884 38.6114 12.4384 36.9709 16.285 33.9502C11.6386 33.8618 7.56414 30.8326 6.14075 26.4097C7.7684 26.7236 9.44549 26.6591 11.043 26.2227C5.97737 25.1992 2.33294 20.7485 2.33294 15.5796C2.33294 15.5323 2.33294 15.4872 2.33294 15.4421C3.84232 16.2827 5.53229 16.7493 7.26097 16.8009C2.4899 13.6123 1.01923 7.26522 3.90038 2.30277C9.41323 9.08635 17.5471 13.2102 26.2786 13.6467C25.4035 9.87544 26.599 5.92356 29.4199 3.27246C33.7934 -0.838528 40.6715 -0.62782 44.7823 3.74334C47.2142 3.26387 49.545 2.37157 51.6778 1.10731C50.8673 3.6208 49.1707 5.75584 46.9045 7.11255C49.0567 6.85882 51.1597 6.28262 53.1399 5.40321C51.6821 7.58773 49.846 9.49055 47.7217 11.0279Z" fill="#474752"/>
</svg>
