<svg id="Capa_1" enable-background="new 0 0 512 512" height="512" viewBox="0 0 512 512" width="512" xmlns="http://www.w3.org/2000/svg"><g><path d="m466 60.5h-285.497c-6.976-34.469-37.507-60.5-74.003-60.5-41.631 0-75.5 33.869-75.5 75.5v361c0 41.631 33.869 75.5 75.5 75.5h299.5c8.284 0 15-6.716 15-15v-45.075c.101 0 45.1.075 45 .075 8.272 0 15-6.709 15-15v-361.5c0-8.284-6.716-15-15-15zm-15 270.5h-75c-8.229 0-14.922 6.63-15 14.859l-.713 75.964-178.287-.298v-331.025h269zm-21.906 30-38.597 38.597.363-38.597zm-368.094-285.5c0-25.089 20.411-45.5 45.5-45.5s45.5 20.411 45.5 45.5v300.791c-26.91-20.386-64.069-20.405-91-.004zm330 406.5h-284.5c-25.089 0-45.5-20.411-45.5-45.5s20.411-45.5 45.5-45.5 45.5 20.411 45.5 45.5c0 8.274 6.701 14.986 14.975 15l224.025.375zm19.613-60.093 40.387-40.386v40.455z"/><path d="m227 181h179c8.284 0 15-6.716 15-15s-6.716-15-15-15h-179c-8.284 0-15 6.716-15 15s6.716 15 15 15z"/><path d="m227 241h179c8.284 0 15-6.716 15-15s-6.716-15-15-15h-179c-8.284 0-15 6.716-15 15s6.716 15 15 15z"/><path d="m227 301h179c8.284 0 15-6.716 15-15s-6.716-15-15-15h-179c-8.284 0-15 6.716-15 15s6.716 15 15 15z"/><path d="m316 330h-89c-8.284 0-15 6.716-15 15s6.716 15 15 15h89c8.284 0 15-6.716 15-15s-6.716-15-15-15z"/></g></svg>