<svg id="Capa_1" enable-background="new 0 0 512 512" height="512" viewBox="0 0 512 512" width="512" xmlns="http://www.w3.org/2000/svg"><g><path d="m497 0h-300c-8.284 0-15 6.716-15 15v76h-76c-8.284 0-15 6.716-15 15v76h-76c-8.284 0-15 6.716-15 15v300c0 8.284 6.716 15 15 15h300c8.284 0 15-6.716 15-15v-76h76c8.284 0 15-6.716 15-15v-76h76c8.284 0 15-6.716 15-15v-300c0-8.284-6.716-15-15-15zm-197 482h-270v-270h61v194c0 8.284 6.716 15 15 15h194zm91-91h-270v-270h61v194c0 8.284 6.716 15 15 15h194zm91-91h-270v-270h270z"/></g></svg>