<svg width="63" height="63" viewBox="0 0 63 63" fill="none" xmlns="http://www.w3.org/2000/svg">
<g clip-path="url(#clip0)">
<path d="M44.61 17.8166L33.0243 25.0993C32.648 25.3359 32.151 25.2226 31.9144 24.8462L24.6317 13.2606C23.4488 11.3788 20.964 10.8121 19.0822 11.995C17.2004 13.1779 16.6338 15.6627 17.8167 17.5445L25.0994 29.1302C25.3359 29.5065 25.2226 30.0035 24.8462 30.2401L13.2606 37.5228C11.3788 38.7057 10.8121 41.1905 11.995 43.0723C13.1779 44.9541 15.6627 45.5207 17.5445 44.3378L29.1302 37.0551C29.5065 36.8186 30.0035 36.9319 30.2401 37.3083L37.5228 48.8939C38.7057 50.7757 41.1905 51.3424 43.0723 50.1595C44.9541 48.9766 45.5208 46.4918 44.3379 44.61L37.0552 33.0243C36.8186 32.648 36.9319 32.151 37.3083 31.9144L48.8939 24.6317C50.7757 23.4488 51.3424 20.964 50.1595 19.0822C48.9766 17.2004 46.4918 16.6337 44.61 17.8166Z" fill="#1A2B3C"/>
</g>
<defs>
<clipPath id="clip0">
<rect width="45.0782" height="45.0782" fill="white" transform="translate(0 23.9901) rotate(-32.1534)"/>
</clipPath>
</defs>
</svg>
