<svg width="259" height="259" viewBox="0 0 259 259" fill="none" xmlns="http://www.w3.org/2000/svg">
<g clip-path="url(#clip0)">
<path d="M188.061 75.7369L138.324 104.453C136.709 105.385 134.642 104.832 133.71 103.216L104.994 53.4791C100.33 45.4005 89.9982 42.6322 81.9197 47.2963C73.8411 51.9605 71.0728 62.2921 75.7369 70.3706L104.453 120.108C105.385 121.723 104.832 123.79 103.216 124.722L53.4791 153.438C45.4005 158.102 42.6322 168.434 47.2963 176.512C51.9605 184.591 62.2921 187.359 70.3706 182.695L120.108 153.979C121.723 153.047 123.79 153.6 124.722 155.216L153.438 204.953C158.102 213.031 168.434 215.8 176.512 211.136C184.591 206.472 187.359 196.14 182.695 188.061L153.979 138.324C153.047 136.709 153.6 134.642 155.216 133.71L204.953 104.994C213.031 100.33 215.8 89.9982 211.136 81.9197C206.472 73.8411 196.14 71.0728 188.061 75.7369Z" fill="#1A2B3C"/>
</g>
<defs>
<clipPath id="clip0">
<rect width="189.185" height="189.185" fill="white" transform="translate(0 94.5927) rotate(-30)"/>
</clipPath>
</defs>
</svg>
