<svg width="31" height="50" viewBox="0 0 31 50" fill="none" xmlns="http://www.w3.org/2000/svg">
<circle cx="2.5" cy="47.5" r="2.5" transform="rotate(-90 2.5 47.5)" fill="#E0E1DD"/>
<circle cx="15.5" cy="47.5" r="2.5" transform="rotate(-90 15.5 47.5)" fill="#E0E1DD"/>
<circle cx="28.5" cy="47.5" r="2.5" transform="rotate(-90 28.5 47.5)" fill="#E0E1DD"/>
<circle cx="2.5" cy="32.5" r="2.5" transform="rotate(-90 2.5 32.5)" fill="#E0E1DD"/>
<circle cx="15.5" cy="32.5" r="2.5" transform="rotate(-90 15.5 32.5)" fill="#E0E1DD"/>
<circle cx="28.5" cy="32.5" r="2.5" transform="rotate(-90 28.5 32.5)" fill="#E0E1DD"/>
<circle cx="2.5" cy="17.5" r="2.5" transform="rotate(-90 2.5 17.5)" fill="#E0E1DD"/>
<circle cx="2.5" cy="2.5" r="2.5" transform="rotate(-90 2.5 2.5)" fill="#E0E1DD"/>
<circle cx="15.5" cy="17.5" r="2.5" transform="rotate(-90 15.5 17.5)" fill="#E0E1DD"/>
<circle cx="15.5" cy="2.5" r="2.5" transform="rotate(-90 15.5 2.5)" fill="#E0E1DD"/>
<circle cx="28.5" cy="17.5" r="2.5" transform="rotate(-90 28.5 17.5)" fill="#E0E1DD"/>
<circle cx="28.5" cy="2.5" r="2.5" transform="rotate(-90 28.5 2.5)" fill="#E0E1DD"/>
</svg>
